<svg xmlns="http://www.w3.org/2000/svg" width="20.372" height="24.243" viewBox="0 0 20.372 24.243">
  <path id="apple" d="M21.033,44.811a5.053,5.053,0,0,1,2.706-4.59,5.815,5.815,0,0,0-4.584-2.414c-1.921-.152-4.021,1.12-4.79,1.12-.812,0-2.674-1.066-4.135-1.066C7.21,37.91,4,40.27,4,45.071a13.49,13.49,0,0,0,.779,4.395c.693,1.986,3.193,6.857,5.8,6.776,1.364-.032,2.327-.969,4.1-.969,1.721,0,2.614.969,4.135.969,2.63-.038,4.893-4.465,5.553-6.457a5.365,5.365,0,0,1-3.339-4.974Zm-3.063-8.887A5.1,5.1,0,0,0,19.268,32a5.739,5.739,0,0,0-3.675,1.889,5.178,5.178,0,0,0-1.386,3.891A4.546,4.546,0,0,0,17.969,35.924Z" transform="translate(-4 -32)" fill="#fff" opacity="0.7"/>
</svg>
