<svg id="_01_align_center" data-name="01 align center" xmlns="http://www.w3.org/2000/svg" width="23.478" height="23.679" viewBox="0 0 23.478 23.679">
  <path id="패스_29" data-name="패스 29" d="M23.477,2.935H4.15l-.041-.343A2.935,2.935,0,0,0,1.2,0H0V1.956H1.2a.978.978,0,0,1,.971.864L3.717,16A2.935,2.935,0,0,0,6.63,18.586H19.565V16.63H6.63a.978.978,0,0,1-.971-.865l-.128-1.092h15.83Zm-3.752,9.782H5.3L4.381,4.891H21.137Z" fill="#2b4016"/>
  <ellipse id="타원_1" data-name="타원 1" cx="1.866" cy="2.239" rx="1.866" ry="2.239" transform="translate(5.022 19.201)" fill="#2b4016"/>
  <ellipse id="타원_2" data-name="타원 2" cx="1.866" cy="2.239" rx="1.866" ry="2.239" transform="translate(14.724 19.201)" fill="#2b4016"/>
</svg>
