<svg xmlns="http://www.w3.org/2000/svg" width="26.897" height="24.246" viewBox="0 0 26.897 24.246">
  <path id="ch" d="M13.449,0C6.021,0,0,5.04,0,11.257A10.015,10.015,0,0,0,2.51,17.8a8.121,8.121,0,0,1-1.123,3.4,9.684,9.684,0,0,1-.8,1.17c-.108.142-.2.244-.257.311a.992.992,0,0,1-.068.074l-.014.014a.875.875,0,0,0-.176.94.834.834,0,0,0,.778.534A10.815,10.815,0,0,0,5.135,23.2a15.363,15.363,0,0,0,2.855-1.657,15.651,15.651,0,0,0,5.466.967c7.428,0,13.442-5.04,13.442-11.257S20.87,0,13.449,0Zm-.413,15.728a3.758,3.758,0,0,1-1.394.622,4.991,4.991,0,0,1-1.556.095,5,5,0,0,1-1.387-.3,3.263,3.263,0,0,1-1.055-.629,4,4,0,0,1-.832-1,5.151,5.151,0,0,1-.575-1.3A5.542,5.542,0,0,1,6.014,11.7a10.054,10.054,0,0,1,.095-1.488,7.191,7.191,0,0,1,.365-1.434,5,5,0,0,1,.663-1.245,3.629,3.629,0,0,1,1.042-.961,4.077,4.077,0,0,1,1.427-.521A5.074,5.074,0,0,1,11.2,6a4.061,4.061,0,0,1,1.475.474,2.634,2.634,0,0,1,1.035,1L12.407,8.524a1.326,1.326,0,0,0-.609-.676,2.387,2.387,0,0,0-.879-.277,2.751,2.751,0,0,0-.913.047,2.254,2.254,0,0,0-.7.264A3.427,3.427,0,0,0,8.24,9.3a5.249,5.249,0,0,0-.413,2.361,5.01,5.01,0,0,0,.129,1,3.5,3.5,0,0,0,.352.92,2.9,2.9,0,0,0,.548.744,1.988,1.988,0,0,0,.758.46,2.984,2.984,0,0,0,.71.142,2.787,2.787,0,0,0,.852-.054,1.966,1.966,0,0,0,.764-.352,1.378,1.378,0,0,0,.494-.764l1.536.7a2.588,2.588,0,0,1-.927,1.265Zm6.467.879c-.02-.264-.027-.629-.02-1.082s0-.92-.02-1.394-.034-.92-.068-1.333a2.88,2.88,0,0,0-.189-.893.785.785,0,0,0-.46-.379,1.609,1.609,0,0,0-.676-.081,2.3,2.3,0,0,0-.67.156.97.97,0,0,0-.453.325,2.065,2.065,0,0,0-.257.886,13.212,13.212,0,0,0-.088,1.326c-.02.474-.02.934-.014,1.38s.014.791.014,1.035l-1.82-.088V5.953l1.779.014c.02.3.027.649.027,1.055s0,.805-.014,1.2-.034.791-.054,1.17-.034.69-.054.947a1.493,1.493,0,0,1,.839-.372A4.776,4.776,0,0,1,18.6,9.917a4.061,4.061,0,0,1,1.285.338,1.751,1.751,0,0,1,.873.785,4.528,4.528,0,0,1,.3,1.191c.068.5.115,1.015.142,1.549s.041,1.042.054,1.515.02.839.041,1.076l-1.779.23Z" fill="#fff" opacity="0.7"/>
</svg>
