<svg xmlns="http://www.w3.org/2000/svg" width="24.251" height="24.245" viewBox="0 0 24.251 24.245">
  <path id="instagram" d="M12.053,37.731a6.216,6.216,0,1,0,6.216,6.216A6.206,6.206,0,0,0,12.053,37.731Zm0,10.257a4.041,4.041,0,1,1,4.041-4.041,4.049,4.049,0,0,1-4.041,4.041Zm7.92-10.512a1.45,1.45,0,1,1-1.45-1.45A1.447,1.447,0,0,1,19.973,37.477Zm4.117,1.472a7.175,7.175,0,0,0-1.958-5.08,7.222,7.222,0,0,0-5.08-1.958c-2-.114-8-.114-10,0a7.212,7.212,0,0,0-5.08,1.953A7.2,7.2,0,0,0,.01,38.943c-.114,2-.114,8,0,10a7.175,7.175,0,0,0,1.958,5.08,7.232,7.232,0,0,0,5.08,1.958c2,.114,8,.114,10,0a7.175,7.175,0,0,0,5.08-1.958,7.222,7.222,0,0,0,1.958-5.08C24.2,46.945,24.2,40.95,24.09,38.949ZM21.5,51.094a4.091,4.091,0,0,1-2.3,2.3c-1.6.633-5.383.487-7.147.487S6.5,54.027,4.906,53.4a4.091,4.091,0,0,1-2.3-2.3c-.633-1.6-.487-5.383-.487-7.147S1.974,38.391,2.6,36.8a4.091,4.091,0,0,1,2.3-2.3c1.6-.633,5.383-.487,7.147-.487s5.556-.141,7.147.487a4.091,4.091,0,0,1,2.3,2.3c.633,1.6.487,5.383.487,7.147S22.137,49.5,21.5,51.094Z" transform="translate(0.075 -31.825)" fill="#fff" opacity="0.7"/>
</svg>
