<svg xmlns="http://www.w3.org/2000/svg" width="50" height="50" viewBox="0 0 50 50">
  <path id="빼기_5" data-name="빼기 5" d="M25,50A25.007,25.007,0,0,1,15.269,1.965,25.007,25.007,0,0,1,34.731,48.036,24.843,24.843,0,0,1,25,50ZM21.455,16.052a1.365,1.365,0,0,1,.695.158c.339.2.51.794.51,1.77V32.17a2.168,2.168,0,0,1-.9,1.98,5.383,5.383,0,0,1-2.461.69v1.74H31.24V34.84a4.7,4.7,0,0,1-2.49-.66,2.312,2.312,0,0,1-.869-2.04V12.1H25.72l-6.9,2.4v2.1l1.74-.419A3.777,3.777,0,0,1,21.455,16.052Z" fill="#2b4016"/>
</svg>
