<svg xmlns="http://www.w3.org/2000/svg" width="50" height="50" viewBox="0 0 50 50">
  <path id="빼기_15" data-name="빼기 15" d="M25,50A25.007,25.007,0,0,1,15.269,1.965,25.007,25.007,0,0,1,34.731,48.036,24.843,24.843,0,0,1,25,50Zm7.5-38.2a9.819,9.819,0,0,0-4.1.84,8.933,8.933,0,0,0-3.18,2.445A11.306,11.306,0,0,0,23.17,19.06a18.786,18.786,0,0,0-.72,5.43,18.786,18.786,0,0,0,.72,5.43,11.306,11.306,0,0,0,2.056,3.975A8.921,8.921,0,0,0,28.4,36.34a10.4,10.4,0,0,0,8.19,0,8.911,8.911,0,0,0,3.18-2.445A11.306,11.306,0,0,0,41.83,29.92a18.786,18.786,0,0,0,.72-5.43,18.786,18.786,0,0,0-.72-5.43,11.306,11.306,0,0,0-2.056-3.975,8.923,8.923,0,0,0-3.18-2.445A9.819,9.819,0,0,0,32.5,11.8ZM10.205,16.052a1.365,1.365,0,0,1,.695.158c.339.2.51.794.51,1.77V32.17a2.168,2.168,0,0,1-.9,1.98,5.383,5.383,0,0,1-2.461.69v1.74H19.99V34.84a4.7,4.7,0,0,1-2.49-.66,2.312,2.312,0,0,1-.869-2.04V12.1H14.47l-6.9,2.4v2.1l1.74-.419A3.777,3.777,0,0,1,10.205,16.052ZM32.5,34.81a3.733,3.733,0,0,1-2.07-.585,4.28,4.28,0,0,1-1.485-1.845,12.131,12.131,0,0,1-.885-3.21,31.473,31.473,0,0,1-.3-4.68c0-3.6.4-6.253,1.185-7.875a3.807,3.807,0,0,1,7.11,0c.787,1.622,1.185,4.272,1.185,7.875a31.363,31.363,0,0,1-.3,4.68,12.131,12.131,0,0,1-.885,3.21,4.28,4.28,0,0,1-1.485,1.845A3.733,3.733,0,0,1,32.5,34.81Z" fill="#2b4016"/>
</svg>
