<svg xmlns="http://www.w3.org/2000/svg" width="50" height="50" viewBox="0 0 50 50">
  <path id="빼기_8" data-name="빼기 8" d="M25,50A25.007,25.007,0,0,1,15.269,1.965,25.007,25.007,0,0,1,34.731,48.036,24.843,24.843,0,0,1,25,50ZM16.3,30.82v3.66a10.827,10.827,0,0,0,3.81,2.04,15.076,15.076,0,0,0,4.41.66,14.228,14.228,0,0,0,3.586-.45A9.758,9.758,0,0,0,31.135,35.4a6.837,6.837,0,0,0,2.085-2.22,6.068,6.068,0,0,0,.78-3.1,5.762,5.762,0,0,0-.6-2.685,6.567,6.567,0,0,0-1.515-1.95A6.856,6.856,0,0,0,29.83,24.2a8.163,8.163,0,0,0-2.219-.525v-.15a13.491,13.491,0,0,0,2.25-.81,6.3,6.3,0,0,0,1.74-1.184A4.949,4.949,0,0,0,32.71,19.9a5.492,5.492,0,0,0,.391-2.13,4.8,4.8,0,0,0-.661-2.489A5.927,5.927,0,0,0,30.655,13.4a8.874,8.874,0,0,0-2.67-1.184A12.532,12.532,0,0,0,24.7,11.8a14.248,14.248,0,0,0-4,.585A13,13,0,0,0,16.9,14.23v3.36h1.74a5.853,5.853,0,0,1,1.92-2.745,4.883,4.883,0,0,1,3-.945,3.78,3.78,0,0,1,3.164,1.185,5.172,5.172,0,0,1,.915,3.225,4.856,4.856,0,0,1-1.08,3.285,4.4,4.4,0,0,1-3.48,1.246H21.73v2.1h1.86a5.014,5.014,0,0,1,3.72,1.23,4.84,4.84,0,0,1,1.2,3.51,6.7,6.7,0,0,1-.405,2.46,4.866,4.866,0,0,1-1.05,1.665,4.188,4.188,0,0,1-1.47.96,4.663,4.663,0,0,1-1.665.315,6.354,6.354,0,0,1-1.86-.285,6.165,6.165,0,0,1-1.725-.84,6.46,6.46,0,0,1-1.409-1.35,5.082,5.082,0,0,1-.886-1.786Z" fill="#2b4016"/>
</svg>
