<svg xmlns="http://www.w3.org/2000/svg" width="50" height="50" viewBox="0 0 50 50">
  <path id="빼기_11" data-name="빼기 11" d="M25,50A25.007,25.007,0,0,1,15.269,1.965,25.007,25.007,0,0,1,34.731,48.036,24.843,24.843,0,0,1,25,50Zm1.146-38.214c-.208,0-.422,0-.636.014a9.831,9.831,0,0,0-3.72.9A9.044,9.044,0,0,0,19,14.77a11.192,11.192,0,0,0-1.92,2.97,16.781,16.781,0,0,0-1.125,3.57,20.942,20.942,0,0,0-.391,3.9,22.821,22.821,0,0,0,.315,3.96,9.838,9.838,0,0,0,1.156,3.4A9.184,9.184,0,0,0,19.12,35.08a8.945,8.945,0,0,0,2.79,1.56,10.068,10.068,0,0,0,3.3.54,11.018,11.018,0,0,0,3.4-.54,9.258,9.258,0,0,0,2.956-1.575,8.121,8.121,0,0,0,2.084-2.52,7.006,7.006,0,0,0,.8-3.345,7.932,7.932,0,0,0-.78-3.63,7.42,7.42,0,0,0-2.055-2.52A8.308,8.308,0,0,0,28.7,21.61a11.092,11.092,0,0,0-2.94-.4c-.134,0-.27,0-.4.007a8.818,8.818,0,0,0-2.641.5,5.37,5.37,0,0,0-1.89,1.094,13.537,13.537,0,0,1,1.5-6.465,4.42,4.42,0,0,1,3.51-2.355c.113-.006.226-.008.335-.008a5.066,5.066,0,0,1,1.809.309,4.825,4.825,0,0,1,1.635,1.02,6.244,6.244,0,0,1,1.17,1.545,7.761,7.761,0,0,1,.72,1.875h1.74V14.35a6.536,6.536,0,0,0-1.229-.99A9.489,9.489,0,0,0,30.28,12.5a11.419,11.419,0,0,0-2.19-.57A12.212,12.212,0,0,0,26.146,11.786ZM25,35.02a3.639,3.639,0,0,1-3.075-1.515A7.152,7.152,0,0,1,20.8,29.2,7.086,7.086,0,0,1,21.925,24.8,3.722,3.722,0,0,1,25,23.38,3.721,3.721,0,0,1,28.075,24.8,7.082,7.082,0,0,1,29.2,29.2a7.061,7.061,0,0,1-1.125,4.425A3.752,3.752,0,0,1,25,35.02Z" fill="#2b4016"/>
</svg>
