<svg xmlns="http://www.w3.org/2000/svg" width="50" height="50" viewBox="0 0 50 50">
  <path id="빼기_13" data-name="빼기 13" d="M25,50A25.007,25.007,0,0,1,15.269,1.965,25.007,25.007,0,0,1,34.731,48.036,24.843,24.843,0,0,1,25,50Zm.48-38.2a13.663,13.663,0,0,0-3.765.495,9.961,9.961,0,0,0-2.985,1.38,6.9,6.9,0,0,0-1.98,2.085A5.228,5.228,0,0,0,16,18.37a4.908,4.908,0,0,0,.315,1.935,5.3,5.3,0,0,0,1,1.62,8.2,8.2,0,0,0,1.59,1.35,16.813,16.813,0,0,0,2.07,1.155,18.947,18.947,0,0,0-2.265,1.021A9.041,9.041,0,0,0,16.84,26.77a5.751,5.751,0,0,0-1.275,1.71,5.3,5.3,0,0,0,.225,4.785,6.476,6.476,0,0,0,1.95,2.055,10.1,10.1,0,0,0,3.03,1.365,14.628,14.628,0,0,0,3.929.5,15.677,15.677,0,0,0,4.38-.57,10.375,10.375,0,0,0,3.3-1.575,7.294,7.294,0,0,0,2.084-2.355,6.012,6.012,0,0,0,.735-2.91,4.864,4.864,0,0,0-.465-2.115A6.57,6.57,0,0,0,33.43,25.84a10.421,10.421,0,0,0-1.98-1.53,16.432,16.432,0,0,0-2.52-1.23,18.074,18.074,0,0,0,1.966-.824A7.117,7.117,0,0,0,32.56,21.13a5.326,5.326,0,0,0,1.155-1.516,4.688,4.688,0,0,0-.2-4.32A5.877,5.877,0,0,0,31.75,13.45a9.071,9.071,0,0,0-2.745-1.215A13.526,13.526,0,0,0,25.48,11.8Zm-.27,23.34a5.119,5.119,0,0,1-3.57-1.229,4.374,4.374,0,0,1-1.35-3.39,6.48,6.48,0,0,1,.661-2.955A5.906,5.906,0,0,1,23.11,25.3c1.24.5,2.31.97,3.18,1.4a11.629,11.629,0,0,1,2.16,1.32,4.169,4.169,0,0,1,1.2,1.44,3.735,3.735,0,0,1,.33,1.724,3.925,3.925,0,0,1-1.245,2.866A5.054,5.054,0,0,1,25.21,35.14Zm1.23-12.96h0a20.492,20.492,0,0,1-2.4-1.02,7.289,7.289,0,0,1-1.62-1.1,3.628,3.628,0,0,1-.915-1.29A4.188,4.188,0,0,1,21.22,17.2a3.012,3.012,0,0,1,1.08-2.43,4.276,4.276,0,0,1,2.82-.9,3.809,3.809,0,0,1,2.805,1.005,3.684,3.684,0,0,1,1,2.714,5.5,5.5,0,0,1-.6,2.506,5.739,5.739,0,0,1-1.89,2.084Z" fill="#2b4016"/>
</svg>
