<svg xmlns="http://www.w3.org/2000/svg" width="116.604" height="68.938" viewBox="0 0 116.604 68.938">
  <path id="스토리바로가기" d="M101.95,68.94c-1.05,0-2.08-.03-3.09-.06-.98-.03-1.96-.05-2.95-.05H0V63.46H95.91c1.03,0,2.06.03,3.09.06,1.43.04,2.77.08,4.12.04,2.68-.07,4.4-.18,5.83-1.35a6.752,6.752,0,0,0,2.22-5.17c.09-1.95.06-4,.03-5.97q-.03-1.56-.03-3.12V28.77a7.054,7.054,0,0,0-2.54-5.14c-3.58-3.11-22.1-16.62-22.29-16.76l-.24-.19a4.818,4.818,0,0,0-6.6.07c-5.3,4.51-7.76,6.29-7.87,6.36L68.5,8.74s2.42-1.75,7.51-6.09a10.173,10.173,0,0,1,13.6-.05c1.7,1.24,18.89,13.8,22.54,16.96a12.485,12.485,0,0,1,4.39,9.39V47.94q0,1.515.03,3.03c.03,2.06.07,4.18-.03,6.3a12.061,12.061,0,0,1-4.19,9.09c-2.93,2.39-6.2,2.48-9.08,2.55-.44.01-.88.02-1.32.02Z" transform="translate(0 -0.001)" fill="#253a13"/>
</svg>
