<svg xmlns="http://www.w3.org/2000/svg" width="83.352" height="58.721" viewBox="0 0 83.352 58.721">
  <g id="XMLID_184_" transform="translate(0 -3.546)">
    <path id="패스_47" data-name="패스 47" d="M81.608,12.715A10.476,10.476,0,0,0,74.239,5.3c-6.5-1.75-32.563-1.75-32.563-1.75S15.611,3.546,9.11,5.3a10.472,10.472,0,0,0-7.366,7.418C0,19.258,0,32.907,0,32.907S0,46.555,1.743,53.1a10.476,10.476,0,0,0,7.37,7.418c6.5,1.75,32.563,1.75,32.563,1.75s26.065,0,32.566-1.75a10.482,10.482,0,0,0,7.37-7.418c1.74-6.543,1.74-20.192,1.74-20.192S83.352,19.258,81.608,12.715ZM33.153,45.3V20.512l21.783,12.4Z" fill="#b72c2c"/>
  </g>
</svg>
