<svg xmlns="http://www.w3.org/2000/svg" width="34.482" height="24.246" viewBox="0 0 34.482 24.246">
  <path id="youtube" d="M48.695,67.794a4.333,4.333,0,0,0-3.049-3.068C42.957,64,32.174,64,32.174,64s-10.783,0-13.472.725a4.333,4.333,0,0,0-3.049,3.068,48.784,48.784,0,0,0,0,16.707A4.268,4.268,0,0,0,18.7,87.52c2.689.725,13.472.725,13.472.725s10.783,0,13.472-.725A4.268,4.268,0,0,0,48.695,84.5a48.784,48.784,0,0,0,0-16.707ZM28.648,81.274V71.02l9.012,5.127Z" transform="translate(-14.933 -64)" fill="#fff" opacity="0.7"/>
</svg>
